<svg xmlns="http://www.w3.org/2000/svg" xmlns:xlink="http://www.w3.org/1999/xlink" aria-hidden="true" role="img" class="iconify iconify--logos" width="31.88" height="32" preserveAspectRatio="xMidYMid meet" viewBox="0 0 256 257"><defs><linearGradient id="IconifyId1813088fe1fbc01fb466" x1="-.828%" x2="57.636%" y1="7.652%" y2="78.411%"><stop offset="0%" stop-color="#41D1FF"></stop><stop offset="100%" stop-color="#BD34FE"></stop></linearGradient><linearGradient id="IconifyId1813088fe1fbc01fb467" x1="43.376%" x2="50.316%" y1="2.242%" y2="89.03%"><stop offset="0%" stop-color="#FFEA83"></stop><stop offset="8.333%" stop-color="#FFDD35"></stop><stop offset="100%" stop-color="#FFA800"></stop></linearGradient></defs><path fill="url(#IconifyId1813088fe1fbc01fb466)" d="M255.153 37.938L134.897 252.976c-2.483 4.44-8.862 4.466-11.382.048L.875 37.958c-2.746-4.814-1.371-11.019 3.003-13.897l31.905-18.429c4.342-2.509 9.846-2.329 13.979.575l83.554 60.735c4.527 3.291 10.816 3.291 15.343 0l83.554-60.735c4.133-2.904 9.637-3.084 13.979-.575l31.905 18.429c4.374 2.878 5.749 9.083 3.003 13.897Z"></path><path fill="url(#IconifyId1813088fe1fbc01fb467)" d="M185.432.063L96.44 17.501a3.268 3.268 0 0 0-3.633 0L3.638 43.951c-1.896 1.369-1.896 4.267 0 5.636l89.169 61.888a3.268 3.268 0 0 0 3.633 0l89.169-61.888c1.896-1.369 1.896-4.267 0-5.636Z"></path><path fill="#000" d="M11.447 43.695c0-2.516 1.341-4.842 3.517-6.099L144.71 2.24c2.176-1.257 4.86-1.257 7.036 0l129.746 35.356c2.176 1.257 3.517 3.583 3.517 6.099v165.714c0 2.516-1.341 4.842-3.517 6.099L151.746 250.46c-2.176 1.257-4.86 1.257-7.036 0L14.964 215.508c-2.176-1.257-3.517-3.583-3.517-6.099V43.695Z" opacity=".1"></path><path fill="#000" d="M11.447 43.695c0-2.516 1.341-4.842 3.517-6.099L144.71 2.24c2.176-1.257 4.86-1.257 7.036 0l129.746 35.356c2.176 1.257 3.517 3.583 3.517 6.099v165.714c0 2.516-1.341 4.842-3.517 6.099L151.746 250.46c-2.176 1.257-4.86 1.257-7.036 0L14.964 215.508c-2.176-1.257-3.517-3.583-3.517-6.099V43.695Z" opacity=".2"></path><path fill="#000" d="M11.447 43.695c0-2.516 1.341-4.842 3.517-6.099L144.71 2.24c2.176-1.257 4.86-1.257 7.036 0l129.746 35.356c2.176 1.257 3.517 3.583 3.517 6.099v165.714c0 2.516-1.341 4.842-3.517 6.099L151.746 250.46c-2.176 1.257-4.86 1.257-7.036 0L14.964 215.508c-2.176-1.257-3.517-3.583-3.517-6.099V43.695Z" opacity=".2"></path><path fill="url(#IconifyId1813088fe1fbc01fb467)" d="M11.447 43.695c0-2.516 1.341-4.842 3.517-6.099L144.71 2.24c2.176-1.257 4.86-1.257 7.036 0l129.746 35.356c2.176 1.257 3.517 3.583 3.517 6.099v165.714c0 2.516-1.341 4.842-3.517 6.099L151.746 250.46c-2.176 1.257-4.86 1.257-7.036 0L14.964 215.508c-2.176-1.257-3.517-3.583-3.517-6.099V43.695Z"></path></svg>
